<?xml version="1.0" encoding="utf-8" standalone="no"?>
<!DOCTYPE svg PUBLIC "-//W3C//DTD SVG 1.1//EN"
  "http://www.w3.org/Graphics/SVG/1.1/DTD/svg11.dtd">
<svg xmlns:xlink="http://www.w3.org/1999/xlink" width="518.4pt" height="216pt" viewBox="0 0 518.4 216" xmlns="http://www.w3.org/2000/svg" version="1.1">
 <metadata>
  <rdf:RDF xmlns:dc="http://purl.org/dc/elements/1.1/" xmlns:cc="http://creativecommons.org/ns#" xmlns:rdf="http://www.w3.org/1999/02/22-rdf-syntax-ns#">
   <cc:Work>
    <dc:type rdf:resource="http://purl.org/dc/dcmitype/StillImage"/>
    <dc:date>2026-10-08T06:09:12.455940</dc:date>
    <dc:format>image/svg+xml</dc:format>
    <dc:creator>
     <cc:Agent>
      <dc:title>Matplotlib v3.11.2, https://matplotlib.org/</dc:title>
     </cc:Agent>
    </dc:creator>
   </cc:Work>
  </rdf:RDF>
 </metadata>
 <defs>
  <style type="text/css">*{stroke-linejoin: round; stroke-linecap: butt}</style>
 </defs>
 <g id="figure_1">
  <g id="patch_1">
   <path d="M 0 216 
L 518.4 216 
L 518.4 0 
L 0 0 
z
" style="fill: #fcfcfb"/>
  </g>
  <g id="axes_1">
   <g id="patch_2">
    <path d="M 110.497187 166.479297 
L 508.68 166.479297 
L 508.68 23.318437 
L 110.497187 23.318437 
z
" style="fill: #fcfcfb"/>
   </g>
   <g id="patch_3">
    <path d="M 202.675402 166.479297 
L 228.795656 166.479297 
L 228.795656 23.318437 
L 202.675402 23.318437 
z
" clip-path="url(#p6764e5035b)" style="fill: #e6e5e0; opacity: 0.7; stroke: #e6e5e0; stroke-linejoin: miter"/>
   </g>
   <g id="matplotlib.axis_1">
    <g id="xtick_1">
     <g id="line2d_1">
      <path d="M 134.042155 166.479297 
L 134.042155 23.318437 
" clip-path="url(#p6764e5035b)" style="fill: none; stroke: #e6e5e0; stroke-width: 0.8; stroke-linecap: square"/>
     </g>
     <g id="line2d_2">
      <defs>
       <path id="m97842ae8bf" d="M 0 0 
L 0 3.5 
" style="stroke: #52514e; stroke-width: 0.8"/>
      </defs>
      <g>
       <use xlink:href="#m97842ae8bf" x="134.042155" y="166.479297" style="fill: #52514e; stroke: #52514e; stroke-width: 0.8"/>
      </g>
     </g>
     <g id="text_1">
      <text style="font-size: 9px; font-family: 'DejaVu Sans'; text-anchor: middle; fill: #52514e" x="134.042155" y="180.317187" transform="rotate(-0 134.042155 180.317187)">0.5</text>
     </g>
    </g>
    <g id="xtick_2">
     <g id="line2d_3">
      <path d="M 216.451413 166.479297 
L 216.451413 23.318437 
" clip-path="url(#p6764e5035b)" style="fill: none; stroke: #e6e5e0; stroke-width: 0.8; stroke-linecap: square"/>
     </g>
     <g id="line2d_4">
      <g>
       <use xlink:href="#m97842ae8bf" x="216.451413" y="166.479297" style="fill: #52514e; stroke: #52514e; stroke-width: 0.8"/>
      </g>
     </g>
     <g id="text_2">
      <text style="font-size: 9px; font-family: 'DejaVu Sans'; text-anchor: middle; fill: #52514e" x="216.451413" y="180.317187" transform="rotate(-0 216.451413 180.317187)">1</text>
     </g>
    </g>
    <g id="xtick_3">
     <g id="line2d_5">
      <path d="M 298.860671 166.479297 
L 298.860671 23.318437 
" clip-path="url(#p6764e5035b)" style="fill: none; stroke: #e6e5e0; stroke-width: 0.8; stroke-linecap: square"/>
     </g>
     <g id="line2d_6">
      <g>
       <use xlink:href="#m97842ae8bf" x="298.860671" y="166.479297" style="fill: #52514e; stroke: #52514e; stroke-width: 0.8"/>
      </g>
     </g>
     <g id="text_3">
      <text style="font-size: 9px; font-family: 'DejaVu Sans'; text-anchor: middle; fill: #52514e" x="298.860671" y="180.317187" transform="rotate(-0 298.860671 180.317187)">2</text>
     </g>
    </g>
    <g id="xtick_4">
     <g id="line2d_7">
      <path d="M 381.269928 166.479297 
L 381.269928 23.318437 
" clip-path="url(#p6764e5035b)" style="fill: none; stroke: #e6e5e0; stroke-width: 0.8; stroke-linecap: square"/>
     </g>
     <g id="line2d_8">
      <g>
       <use xlink:href="#m97842ae8bf" x="381.269928" y="166.479297" style="fill: #52514e; stroke: #52514e; stroke-width: 0.8"/>
      </g>
     </g>
     <g id="text_4">
      <text style="font-size: 9px; font-family: 'DejaVu Sans'; text-anchor: middle; fill: #52514e" x="381.269928" y="180.317187" transform="rotate(-0 381.269928 180.317187)">4</text>
     </g>
    </g>
    <g id="xtick_5">
     <g id="line2d_9">
      <path d="M 490.209041 166.479297 
L 490.209041 23.318437 
" clip-path="url(#p6764e5035b)" style="fill: none; stroke: #e6e5e0; stroke-width: 0.8; stroke-linecap: square"/>
     </g>
     <g id="line2d_10">
      <g>
       <use xlink:href="#m97842ae8bf" x="490.209041" y="166.479297" style="fill: #52514e; stroke: #52514e; stroke-width: 0.8"/>
      </g>
     </g>
     <g id="text_5">
      <text style="font-size: 9px; font-family: 'DejaVu Sans'; text-anchor: middle; fill: #52514e" x="490.209041" y="180.317187" transform="rotate(-0 490.209041 180.317187)">10</text>
     </g>
    </g>
    <g id="text_6">
     <text style="font-size: 9px; font-family: 'DejaVu Sans'; text-anchor: middle; fill: #52514e" x="309.588594" y="193.317891" transform="rotate(-0 309.588594 193.317891)">time relative to DuckDB (log scale; left of the line = faster)</text>
    </g>
   </g>
   <g id="matplotlib.axis_2">
    <g id="ytick_1">
     <g id="line2d_11">
      <defs>
       <path id="mc85899a247" d="M 0 0 
L -3.5 0 
" style="stroke: #52514e; stroke-width: 0.8"/>
      </defs>
      <g>
       <use xlink:href="#mc85899a247" x="110.497187" y="35.606732" style="fill: #52514e; stroke: #52514e; stroke-width: 0.8"/>
      </g>
     </g>
     <g id="text_7">
      <text style="font-size: 9px; font-family: 'DejaVu Sans'; text-anchor: end; fill: #52514e" x="103.497187" y="39.026029" transform="rotate(-0 103.497187 39.026029)">j1_small_inner</text>
     </g>
    </g>
    <g id="ytick_2">
     <g id="line2d_12">
      <g>
       <use xlink:href="#mc85899a247" x="110.497187" y="65.2528" style="fill: #52514e; stroke: #52514e; stroke-width: 0.8"/>
      </g>
     </g>
     <g id="text_8">
      <text style="font-size: 9px; font-family: 'DejaVu Sans'; text-anchor: end; fill: #52514e" x="103.497187" y="68.672097" transform="rotate(-0 103.497187 68.672097)">j2_medium_inner</text>
     </g>
    </g>
    <g id="ytick_3">
     <g id="line2d_13">
      <g>
       <use xlink:href="#mc85899a247" x="110.497187" y="94.898867" style="fill: #52514e; stroke: #52514e; stroke-width: 0.8"/>
      </g>
     </g>
     <g id="text_9">
      <text style="font-size: 9px; font-family: 'DejaVu Sans'; text-anchor: end; fill: #52514e" x="103.497187" y="98.318164" transform="rotate(-0 103.497187 98.318164)">j3_medium_outer</text>
     </g>
    </g>
    <g id="ytick_4">
     <g id="line2d_14">
      <g>
       <use xlink:href="#mc85899a247" x="110.497187" y="124.544935" style="fill: #52514e; stroke: #52514e; stroke-width: 0.8"/>
      </g>
     </g>
     <g id="text_10">
      <text style="font-size: 9px; font-family: 'DejaVu Sans'; text-anchor: end; fill: #52514e" x="103.497187" y="127.964231" transform="rotate(-0 103.497187 127.964231)">j4_medium_inner_str</text>
     </g>
    </g>
    <g id="ytick_5">
     <g id="line2d_15">
      <g>
       <use xlink:href="#mc85899a247" x="110.497187" y="154.191002" style="fill: #52514e; stroke: #52514e; stroke-width: 0.8"/>
      </g>
     </g>
     <g id="text_11">
      <text style="font-size: 9px; font-family: 'DejaVu Sans'; text-anchor: end; fill: #52514e" x="103.497187" y="157.610299" transform="rotate(-0 103.497187 157.610299)">j5_big_inner</text>
     </g>
    </g>
   </g>
   <g id="line2d_16">
    <path d="M 216.451413 166.479297 
L 216.451413 23.318437 
" clip-path="url(#p6764e5035b)" style="fill: none; stroke: #52514e; stroke-width: 1.2; stroke-linecap: square"/>
   </g>
   <g id="patch_4">
    <path d="M 110.497187 166.479297 
L 110.497187 23.318437 
" style="fill: none; stroke: #c9c8c2; stroke-width: 0.8; stroke-linejoin: miter; stroke-linecap: square"/>
   </g>
   <g id="patch_5">
    <path d="M 110.497188 166.479297 
L 508.68 166.479297 
" style="fill: none; stroke: #c9c8c2; stroke-width: 0.8; stroke-linejoin: miter; stroke-linecap: square"/>
   </g>
   <g id="PathCollection_1">
    <defs>
     <path id="m9d313e0663" d="M 0 2.738613 
C 0.726289 2.738613 1.422928 2.450055 1.936492 1.936492 
C 2.450055 1.422928 2.738613 0.726289 2.738613 0 
C 2.738613 -0.726289 2.450055 -1.422928 1.936492 -1.936492 
C 1.422928 -2.450055 0.726289 -2.738613 0 -2.738613 
C -0.726289 -2.738613 -1.422928 -2.450055 -1.936492 -1.936492 
C -2.450055 -1.422928 -2.738613 -0.726289 -2.738613 0 
C -2.738613 0.726289 -2.450055 1.422928 -1.936492 1.936492 
C -1.422928 2.450055 -0.726289 2.738613 0 2.738613 
z
" style="stroke: #fcfcfb; stroke-width: 1.2"/>
    </defs>
    <g clip-path="url(#p6764e5035b)">
     <use xlink:href="#m9d313e0663" x="490.580781" y="29.825749" style="fill: #2a78d6; stroke: #fcfcfb; stroke-width: 1.2"/>
     <use xlink:href="#m9d313e0663" x="482.842502" y="59.471817" style="fill: #2a78d6; stroke: #fcfcfb; stroke-width: 1.2"/>
     <use xlink:href="#m9d313e0663" x="321.349725" y="89.117884" style="fill: #2a78d6; stroke: #fcfcfb; stroke-width: 1.2"/>
     <use xlink:href="#m9d313e0663" x="262.599533" y="118.763951" style="fill: #2a78d6; stroke: #fcfcfb; stroke-width: 1.2"/>
     <use xlink:href="#m9d313e0663" x="278.330891" y="148.410019" style="fill: #2a78d6; stroke: #fcfcfb; stroke-width: 1.2"/>
    </g>
   </g>
   <g id="PathCollection_2">
    <defs>
     <path id="m9d48c62d1e" d="M 0 2.738613 
C 0.726289 2.738613 1.422928 2.450055 1.936492 1.936492 
C 2.450055 1.422928 2.738613 0.726289 2.738613 0 
C 2.738613 -0.726289 2.450055 -1.422928 1.936492 -1.936492 
C 1.422928 -2.450055 0.726289 -2.738613 0 -2.738613 
C -0.726289 -2.738613 -1.422928 -2.450055 -1.936492 -1.936492 
C -2.450055 -1.422928 -2.738613 -0.726289 -2.738613 0 
C -2.738613 0.726289 -2.450055 1.422928 -1.936492 1.936492 
C -1.422928 2.450055 -0.726289 2.738613 0 2.738613 
z
" style="stroke: #fcfcfb; stroke-width: 1.2"/>
    </defs>
    <g clip-path="url(#p6764e5035b)">
     <use xlink:href="#m9d48c62d1e" x="244.530539" y="33.679738" style="fill: #1baf7a; stroke: #fcfcfb; stroke-width: 1.2"/>
     <use xlink:href="#m9d48c62d1e" x="252.41555" y="63.325805" style="fill: #1baf7a; stroke: #fcfcfb; stroke-width: 1.2"/>
     <use xlink:href="#m9d48c62d1e" x="128.596406" y="92.971873" style="fill: #1baf7a; stroke: #fcfcfb; stroke-width: 1.2"/>
     <use xlink:href="#m9d48c62d1e" x="162.727512" y="122.61794" style="fill: #1baf7a; stroke: #fcfcfb; stroke-width: 1.2"/>
     <use xlink:href="#m9d48c62d1e" x="157.747953" y="152.264008" style="fill: #1baf7a; stroke: #fcfcfb; stroke-width: 1.2"/>
    </g>
   </g>
   <g id="PathCollection_3">
    <defs>
     <path id="m862396bb76" d="M 0 2.738613 
C 0.726289 2.738613 1.422928 2.450055 1.936492 1.936492 
C 2.450055 1.422928 2.738613 0.726289 2.738613 0 
C 2.738613 -0.726289 2.450055 -1.422928 1.936492 -1.936492 
C 1.422928 -2.450055 0.726289 -2.738613 0 -2.738613 
C -0.726289 -2.738613 -1.422928 -2.450055 -1.936492 -1.936492 
C -2.450055 -1.422928 -2.738613 -0.726289 -2.738613 0 
C -2.738613 0.726289 -2.450055 1.422928 -1.936492 1.936492 
C -1.422928 2.450055 -0.726289 2.738613 0 2.738613 
z
" style="stroke: #fcfcfb; stroke-width: 1.2"/>
    </defs>
    <g clip-path="url(#p6764e5035b)">
     <use xlink:href="#m862396bb76" x="312.177058" y="37.533727" style="fill: #eda100; stroke: #fcfcfb; stroke-width: 1.2"/>
     <use xlink:href="#m862396bb76" x="321.323663" y="67.179794" style="fill: #eda100; stroke: #fcfcfb; stroke-width: 1.2"/>
     <use xlink:href="#m862396bb76" x="145.703423" y="96.825862" style="fill: #eda100; stroke: #fcfcfb; stroke-width: 1.2"/>
     <use xlink:href="#m862396bb76" x="159.680016" y="126.471929" style="fill: #eda100; stroke: #fcfcfb; stroke-width: 1.2"/>
     <use xlink:href="#m862396bb76" x="178.444626" y="156.117996" style="fill: #eda100; stroke: #fcfcfb; stroke-width: 1.2"/>
    </g>
   </g>
   <g id="PathCollection_4">
    <defs>
     <path id="m5e61f367f7" d="M 0 2.738613 
C 0.726289 2.738613 1.422928 2.450055 1.936492 1.936492 
C 2.450055 1.422928 2.738613 0.726289 2.738613 0 
C 2.738613 -0.726289 2.450055 -1.422928 1.936492 -1.936492 
C 1.422928 -2.450055 0.726289 -2.738613 0 -2.738613 
C -0.726289 -2.738613 -1.422928 -2.450055 -1.936492 -1.936492 
C -2.450055 -1.422928 -2.738613 -0.726289 -2.738613 0 
C -2.738613 0.726289 -2.450055 1.422928 -1.936492 1.936492 
C -1.422928 2.450055 -0.726289 2.738613 0 2.738613 
z
" style="stroke: #fcfcfb; stroke-width: 1.2"/>
    </defs>
    <g clip-path="url(#p6764e5035b)">
     <use xlink:href="#m5e61f367f7" x="336.12159" y="41.387716" style="fill: #e87ba4; stroke: #fcfcfb; stroke-width: 1.2"/>
     <use xlink:href="#m5e61f367f7" x="353.60099" y="71.033783" style="fill: #e87ba4; stroke: #fcfcfb; stroke-width: 1.2"/>
     <use xlink:href="#m5e61f367f7" x="193.201543" y="100.67985" style="fill: #e87ba4; stroke: #fcfcfb; stroke-width: 1.2"/>
     <use xlink:href="#m5e61f367f7" x="209.506123" y="130.325918" style="fill: #e87ba4; stroke: #fcfcfb; stroke-width: 1.2"/>
     <use xlink:href="#m5e61f367f7" x="220.709524" y="159.971985" style="fill: #e87ba4; stroke: #fcfcfb; stroke-width: 1.2"/>
    </g>
   </g>
   <g id="text_12">
    <text style="font-size: 10px; font-family: 'DejaVu Sans'; text-anchor: start; fill: #0b0b0b" x="110.497187" y="17.318437" transform="rotate(-0 110.497187 17.318437)">h2o-j1, 1 thread: time per query relative to DuckDB</text>
   </g>
   <g id="legend_1">
    <g id="PathCollection_5">
     <g>
      <use xlink:href="#m9d313e0663" x="119.75125" y="204.778125" style="fill: #2a78d6; stroke: #fcfcfb; stroke-width: 1.2"/>
     </g>
    </g>
    <g id="text_13">
     <text style="font-size: 8px; font-family: 'DejaVu Sans'; text-anchor: start; fill: #0b0b0b" x="134.15125" y="206.878125" transform="rotate(-0 134.15125 206.878125)">cdb</text>
    </g>
    <g id="PathCollection_6">
     <g>
      <use xlink:href="#m9d48c62d1e" x="172.7075" y="204.778125" style="fill: #1baf7a; stroke: #fcfcfb; stroke-width: 1.2"/>
     </g>
    </g>
    <g id="text_14">
     <text style="font-size: 8px; font-family: 'DejaVu Sans'; text-anchor: start; fill: #0b0b0b" x="187.1075" y="206.878125" transform="rotate(-0 187.1075 206.878125)">DataFusion</text>
    </g>
    <g id="PathCollection_7">
     <g>
      <use xlink:href="#m862396bb76" x="255.7975" y="204.778125" style="fill: #eda100; stroke: #fcfcfb; stroke-width: 1.2"/>
     </g>
    </g>
    <g id="text_15">
     <text style="font-size: 8px; font-family: 'DejaVu Sans'; text-anchor: start; fill: #0b0b0b" x="270.1975" y="206.878125" transform="rotate(-0 270.1975 206.878125)">ClickHouse (chDB)</text>
    </g>
    <g id="PathCollection_8">
     <g>
      <use xlink:href="#m5e61f367f7" x="368.23375" y="204.778125" style="fill: #e87ba4; stroke: #fcfcfb; stroke-width: 1.2"/>
     </g>
    </g>
    <g id="text_16">
     <text style="font-size: 8px; font-family: 'DejaVu Sans'; text-anchor: start; fill: #0b0b0b" x="382.63375" y="206.878125" transform="rotate(-0 382.63375 206.878125)">Polars</text>
    </g>
   </g>
  </g>
 </g>
 <defs>
  <clipPath id="p6764e5035b">
   <rect x="110.497187" y="23.318437" width="398.182812" height="143.160859"/>
  </clipPath>
 </defs>
</svg>
